<svg width="24" height="24" viewBox="0 0 24 24" xmlns="http://www.w3.org/2000/svg">
    <path d="M2.884 14.198a3.003 3.003 0 0 1 0-4.256l7.058-7.058a3.003 3.003 0 0 1 4.256 0l7.058 7.058a3.003 3.003 0 0 1 0 4.256l-7.058 7.058a3.003 3.003 0 0 1-4.256 0l-7.058-7.058zM4.3 12.784l7.057 7.057c.399.399 1.03.398 1.428 0l7.057-7.057a1.003 1.003 0 0 0 0-1.428L12.784 4.3a1.003 1.003 0 0 0-1.428 0L4.3 11.356a1.003 1.003 0 0 0 0 1.428zm6.77-5.714h2v7h-2v-7zm0 10h2v-2h-2v2z" fill="#969899" fill-rule="evenodd"/>
</svg>
