<svg width="24" height="24" viewBox="0 0 24 24" xmlns="http://www.w3.org/2000/svg">
    <path d="M19.5 8.167v-.834L17 9l-2.5-1.667v.834L17 9.833l2.5-1.666zM20.333 4H3.667C2.75 4 2 4.75 2 5.667v11.666C2 18.25 2.75 19 3.667 19h16.666c.917 0 1.658-.75 1.658-1.667L22 5.667C22 4.75 21.25 4 20.333 4zM8.667 6.5c1.383 0 2.5 1.117 2.5 2.5s-1.117 2.5-2.5 2.5a2.497 2.497 0 0 1-2.5-2.5c0-1.383 1.116-2.5 2.5-2.5zm5 10h-10v-.833c0-1.667 3.333-2.584 5-2.584 1.666 0 5 .917 5 2.584v.833zm0-10h6.666v5h-6.666v-5z" fill="#4B4C4C" fill-rule="evenodd"/>
</svg>
