<?xml version="1.0" encoding="UTF-8" standalone="no"?>
<svg
   xmlns:dc="http://purl.org/dc/elements/1.1/"
   xmlns:cc="http://creativecommons.org/ns#"
   xmlns:rdf="http://www.w3.org/1999/02/22-rdf-syntax-ns#"
   xmlns:svg="http://www.w3.org/2000/svg"
   xmlns="http://www.w3.org/2000/svg"
   xmlns:sodipodi="http://sodipodi.sourceforge.net/DTD/sodipodi-0.dtd"
   xmlns:inkscape="http://www.inkscape.org/namespaces/inkscape"
   width="24"
   height="24"
   viewBox="0 0 24 24"
   version="1.1"
   id="svg4"
   sodipodi:docname="icon-service-orders-report.svg"
   inkscape:version="0.92.2 (5c3e80d, 2017-08-06)">
  <metadata
     id="metadata10">
    <rdf:RDF>
      <cc:Work
         rdf:about="">
        <dc:format>image/svg+xml</dc:format>
        <dc:type
           rdf:resource="http://purl.org/dc/dcmitype/StillImage" />
        <dc:title></dc:title>
      </cc:Work>
    </rdf:RDF>
  </metadata>
  <defs
     id="defs8" />
  <sodipodi:namedview
     pagecolor="#ffffff"
     bordercolor="#666666"
     borderopacity="1"
     objecttolerance="10"
     gridtolerance="10"
     guidetolerance="10"
     inkscape:pageopacity="0"
     inkscape:pageshadow="2"
     inkscape:window-width="1920"
     inkscape:window-height="1012"
     id="namedview6"
     showgrid="false"
     inkscape:zoom="9.8333333"
     inkscape:cx="12"
     inkscape:cy="12"
     inkscape:window-x="-8"
     inkscape:window-y="246"
     inkscape:window-maximized="1"
     inkscape:current-layer="svg4" />
  <path
     d="M20.488 6.11l-7.57 7.57-.42.421.17.571a4.206 4.206 0 0 1-1.041 4.199c-1.064 1.076-3.35 1.556-3.087 1.294l.062-.063 1.465-1.464.408-.409-.15-.558-.597-2.224-.15-.558-.557-.15-2.222-.594-.558-.15-.408.409s-1.482 1.849-1.487 1.486a4.178 4.178 0 0 1 1.216-3.013 4.289 4.289 0 0 1 4.24-1.078l.57.167.42-.42 7.432-7.432c.046-.045.175-.163.175-.163a1.504 1.504 0 0 1 2.072.03c.593.593.595 1.544.017 2.13zm-1.875-4.464c-.572.135-1.595.846-1.666.917L9.85 9.66c-.157.157.13.115-.066.077a6.285 6.285 0 0 0-5.643 1.733c-1.57 1.59-2.158 3.851-1.574 6.029a1.415 1.415 0 1 0 2.366.633l1.894-1.905 1.125.312.3 1.085-1.911 1.911a1.418 1.418 0 0 0-.369 1.358c.136.498.513.875.998 1.007 2.182.586 4.509-.035 6.08-1.624a6.194 6.194 0 0 0 1.693-5.523c-.04-.218-.098.029.057-.127l7.108-7.107a3.508 3.508 0 0 0-.008-4.94 3.505 3.505 0 0 0-3.286-.934z"
     fill="#969899"
     id="path2"
     style="fill:#4b4c4c;fill-opacity:1" />
</svg>
