<svg width="24" height="24" viewBox="0 0 24 24" xmlns="http://www.w3.org/2000/svg">
    <path d="M3.693 2.307l-1.4 1.4 1.964 1.964A9.959 9.959 0 0 0 2 12a9.995 9.995 0 0 0 4.854 8.576l1.03-1.715A7.996 7.996 0 0 1 4 12c0-1.849.627-3.551 1.68-4.906l1.43 1.43A5.973 5.973 0 0 0 6 12a5.997 5.997 0 0 0 2.913 5.146l1.029-1.716a3.998 3.998 0 0 1-1.388-5.462l1.514 1.514a2.003 2.003 0 0 0 2.45 2.45l1.603 1.604.966 1.61c.134-.08.263-.165.39-.255l1.429 1.429a8.018 8.018 0 0 1-.79.541l1.03 1.715c.415-.25.81-.528 1.183-.833l1.964 1.964 1.414-1.414-.003-.003-.014.014L3.693 2.307zm3.663.835A9.957 9.957 0 0 1 12 2c5.523 0 10 4.477 10 10a9.957 9.957 0 0 1-1.142 4.644l-1.5-1.5A8 8 0 0 0 8.855 4.641l-1.5-1.5zM17.79 13.577a6 6 0 0 0-7.367-7.367l1.796 1.796a4 4 0 0 1 3.774 3.774l1.797 1.797z" fill="#FFFFFF" fill-rule="evenodd"/>
</svg>
