<svg width="16" height="16" viewBox="0 0 16 16" xmlns="http://www.w3.org/2000/svg">
    <path d="M7.677 11.03l-.177.177-.354-.353-2.5-2.5L4.293 8 5 7.293l.354.353L7.5 9.793l5.646-5.647.354-.353.707.707-.353.354-6 6-.177.176zm5.964-8.794A.995.995 0 0 0 12.998 2H3.002C2.456 2 2 2.449 2 3.002v9.996C2 13.544 2.449 14 3.002 14h9.996c.546 0 1.002-.449 1.002-1.002V6.12l-1 1v5.37a.51.51 0 0 1-.51.509H3.51a.51.51 0 0 1-.51-.51V3.51A.51.51 0 0 1 3.51 3h8.98c.11 0 .21.034.294.093l.857-.857z" fill="#969899" fill-rule="evenodd"/>
</svg>
