<svg width="16" height="16" viewBox="0 0 16 16" xmlns="http://www.w3.org/2000/svg">
    <path stroke="#969899" stroke-width=".99" fill="none" stroke-linecap="round" d="M8.538 3.734c.95 0 1.78.528 2.221 1.31a3.08 3.08 0 0 1 1.256-.265 3.11 3.11 0 0 1 3.105 3.117 3.11 3.11 0 0 1-3.717 3.055 2.27 2.27 0 0 1-2.973.93 2.59 2.59 0 0 1-2.383 1.57 2.59 2.59 0 0 1-2.43-1.687A2.402 2.402 0 0 1 .72 9.399c0-.895.483-1.676 1.201-2.094A2.757 2.757 0 0 1 1.692 6.2a2.788 2.788 0 0 1 2.796-2.78 2.8 2.8 0 0 1 2.224 1.094 2.529 2.529 0 0 1 1.826-.78z"/>
</svg>
