<svg width="85" height="44" viewBox="0 0 85 44" xmlns="http://www.w3.org/2000/svg">
    <path d="M41.637.008H21.713V44l19.924-.001V.009zM19.93 43.992L19.934.007H0V44l19.93-.008zM84.982 44l.01-43.985L65.197 0l.004 44 19.78-.001zM63.405.005L43.429.006 43.425 44l19.98-.002V.005zM29.69 13.71a11.56 11.56 0 0 1 2.224-.203c2.988.207 5.274 1.426 7.005 3.886 1.797 3.104 1.615 6.36-.143 9.431-1.754 2.514-3.79 3.447-6.79 3.585-3.34-.005-5.94-1.097-7.618-4.082-1.433-3.137-1.39-6.145.33-9.15 1.316-1.877 2.765-2.89 4.992-3.467zm43.755 3.793l-.008 2.64 6.747.016-.01 3.563-6.747-.002v2.742l7.973.024.003 3.692-12.489-.014.002-16.324 12.487-.016-.005 3.698-7.953-.02zM58.673 30.206l-8.384-8.001.015 7.965-4.149-.006-.018-16.352 2.45-.006 7.94 8.136.022-8.146 4.167.003v16.375l-2.043.032zm-45.781-.013l-5.5-7.34.003 7.339-4.534.006.014-16.513 4.551-.01-.02 7.372 5.572-7.368 4.767-.004-5.968 8.08 6.278 8.452-5.163-.014zm18.35-12.85c-1.86.35-2.71 1.2-3.387 2.937-.313 1.27-.306 2.162.034 3.429.674 1.572 1.427 2.268 3.05 2.825.86.142 1.37.176 2.22-.004 1.39-.621 1.917-1.413 2.392-2.829.26-1.262.246-2.183-.068-3.433-.823-2.076-1.974-2.932-4.24-2.925z" fill="#FFF" fill-rule="evenodd"/>
</svg>
