<?xml version="1.0" encoding="UTF-8" standalone="no"?>
<svg
   xmlns:dc="http://purl.org/dc/elements/1.1/"
   xmlns:cc="http://creativecommons.org/ns#"
   xmlns:rdf="http://www.w3.org/1999/02/22-rdf-syntax-ns#"
   xmlns:svg="http://www.w3.org/2000/svg"
   xmlns="http://www.w3.org/2000/svg"
   xmlns:sodipodi="http://sodipodi.sourceforge.net/DTD/sodipodi-0.dtd"
   xmlns:inkscape="http://www.inkscape.org/namespaces/inkscape"
   width="24"
   height="24"
   viewBox="0 0 24 24"
   version="1.1"
   id="svg5449"
   sodipodi:docname="icon-route.svg"
   inkscape:version="0.92.3 (2405546, 2018-03-11)">
  <metadata
     id="metadata5455">
    <rdf:RDF>
      <cc:Work
         rdf:about="">
        <dc:format>image/svg+xml</dc:format>
        <dc:type
           rdf:resource="http://purl.org/dc/dcmitype/StillImage" />
        <dc:title></dc:title>
      </cc:Work>
    </rdf:RDF>
  </metadata>
  <defs
     id="defs5453" />
  <sodipodi:namedview
     pagecolor="#ffffff"
     bordercolor="#666666"
     borderopacity="1"
     objecttolerance="10"
     gridtolerance="10"
     guidetolerance="10"
     inkscape:pageopacity="0"
     inkscape:pageshadow="2"
     inkscape:window-width="2560"
     inkscape:window-height="1372"
     id="namedview5451"
     showgrid="true"
     inkscape:zoom="32"
     inkscape:cx="31.082627"
     inkscape:cy="4.0147893"
     inkscape:window-x="1912"
     inkscape:window-y="-8"
     inkscape:window-maximized="1"
     inkscape:current-layer="g5447">
    <inkscape:grid
       type="xygrid"
       id="grid5472" />
  </sodipodi:namedview>
  <g
     fill="#fff"
     fill-rule="evenodd"
     id="g5447">
    <path
       inkscape:connector-curvature="0"
       d="m 6.3608368,19.719543 1.8559133,-2.052103 0.055513,-0.05866 0.025234,-0.02524 c 0.5507169,-0.620741 0.8566714,-1.438302 0.8566714,-2.302543 0,-1.869162 -1.4332547,-3.374331 -3.1541695,-3.374331 -1.7209151,0 -3.1541697,1.505169 -3.1541697,3.374331 0,0.856672 0.300908,1.654045 0.8705509,2.318315 l 2.2874044,2.523337 z M 2.7581443,18.420025 c -0.7544773,-0.880013 -1.1739819,-1.965048 -1.1739819,-3.1384 0,-2.553614 1.9846035,-4.636628 4.4158375,-4.636628 2.4312338,0 4.4158371,2.083014 4.4158371,4.635998 0,1.173352 -0.4195042,2.288666 -1.1733509,3.139661 l -0.056775,0.05866 -0.055513,0.05866 L 6,22 2.8975587,18.567004 2.8420457,18.508344 Z"
       id="path5443-9-8"
       sodipodi:nodetypes="ccccsssccccsssccccccc"
       style="stroke-width:0.63083392" />
    <path
       inkscape:connector-curvature="0"
       d="m 5.9999999,16.321376 c 0.8411115,0 0.8411115,-1.261667 0,-1.261667 -0.8411117,0 -0.8411117,1.261667 0,1.261667 z m 0,1.261667 c -2.5233345,0 -2.5233345,-3.785003 0,-3.785003 2.5233342,0 2.5233342,3.785003 0,3.785003 z"
       id="path5445-8"
       sodipodi:nodetypes="ssssss"
       style="stroke-width:0.63083392" />
    <path
       inkscape:connector-curvature="0"
       d="m 19.360837,9.719543 1.855913,-2.0521035 0.05552,-0.05866 0.02523,-0.025241 c 0.550717,-0.6207408 0.856671,-1.4383018 0.856671,-2.3025431 0,-1.8691618 -1.433254,-3.3743317 -3.154169,-3.3743317 -1.720915,0 -3.154169,1.5051699 -3.154169,3.3743317 0,0.8566716 0.300907,1.6540452 0.870551,2.3183146 l 2.287404,2.523338 z M 15.758144,8.4200248 C 15.003667,7.5400112 14.584163,6.4549765 14.584163,5.2816251 c 0,-2.5536154 1.984603,-4.6366285 4.415837,-4.6366285 2.431234,0 4.415837,2.0830131 4.415837,4.6359981 0,1.1733515 -0.419504,2.2886655 -1.173351,3.1396604 l -0.05678,0.05866 -0.05551,0.05866 L 19,12 15.897558,8.5670037 15.84205,8.5083435 Z"
       id="path5443-9-8-7"
       sodipodi:nodetypes="ccccsssccccsssccccccc"
       style="stroke-width:0.63083392" />
    <path
       inkscape:connector-curvature="0"
       d="m 19,6.3213755 c 0.841111,0 0.841111,-1.2616673 0,-1.2616673 -0.841111,0 -0.841111,1.2616673 0,1.2616673 z m 0,1.2616673 c -2.523335,0 -2.523335,-3.7850028 0,-3.7850028 2.523335,0 2.523335,3.7850028 0,3.7850028 z"
       id="path5445-8-9"
       sodipodi:nodetypes="ssssss"
       style="stroke-width:0.63083392" />
    <path
       style="fill:#fff;fill-opacity:1;stroke:#000000;stroke-width:0;stroke-linecap:butt;stroke-linejoin:miter;stroke-miterlimit:4;stroke-dasharray:none;stroke-opacity:1"
       d="m 8,22 2,-2 h 8 c 3,0 3,-3 -0.06976,-3 H 15 c -5,0 -5,-7 0,-7 h 1 l 2,2 h -3 c -2.546875,0 -2.453125,3 0,3 h 2.93024 C 24,15 24,22 18,22 Z"
       id="path5560"
       inkscape:connector-curvature="0"
       sodipodi:nodetypes="ccccccccccccc" />
  </g>
</svg>
