<svg xmlns="http://www.w3.org/2000/svg" width="24" height="24" viewBox="0 0 24 24">
    <path fill="#4B4C4C" fill-rule="evenodd" d="M3.99 2h16.02C21.101 2 22 3.054 22 4.353v15.294C22 20.953 21.109 22 20.01 22H3.99C2.899 22 2 20.946 2 19.647V4.353C2 3.047 2.891 2 3.99 2zm0 4.002c.005 0 .01-.005.01 0v13.996c0-.002.001 0-.01 0h16.02c-.005 0-.01.005-.01 0V6.002c0 .002-.001 0 .01 0H3.99zM11 8h2v2h-2V8zm0 4h2v2h-2v-2zm-4 0h2v2H7v-2zm4 4h2v2h-2v-2zm4-8h2v2h-2V8zm0 4h2v2h-2v-2zm-8 4h2v2H7v-2z"/>
</svg>
