<svg width="24" height="24" viewBox="0 0 24 24" xmlns="http://www.w3.org/2000/svg">
    <path d="M16.012 8.339A7.7 7.7 0 0 0 13 7.272v3.22c0 .557-.444 1.008-1 1.008-.552 0-1-.457-1-1.008v-3.22A7.7 7.7 0 0 0 7.988 8.34c.008.05.012.1.012.152v4.018a.993.993 0 0 1-1 .991 1 1 0 0 1-1-.99v-2.46a8.607 8.607 0 0 0-2 5.557c0 3.857 16 3.857 16 0a8.607 8.607 0 0 0-2-5.556v2.458a.993.993 0 0 1-1 .991 1 1 0 0 1-1-.99V8.49c0-.051.004-.102.012-.151zM13 5.259c5.061.521 9 4.963 9 10.348 0 6.524-20 6.524-20 0 0-5.385 3.939-9.827 9-10.349v-1.25C11 3.451 11.444 3 12 3c.552 0 1 .457 1 1.008v1.25zM1 16.5c0-.552.44-1 1.002-1h19.996a.999.999 0 0 1 1.002 1c0 .552-.44 1-1.002 1H2.002A.999.999 0 0 1 1 16.5z" fill="#979797" fill-rule="evenodd"/>
</svg>
