<svg width="24" height="24" viewBox="0 0 24 24" xmlns="http://www.w3.org/2000/svg">
    <g fill="none" fill-rule="evenodd">
        <path d="M16.242 14.502l.102-.103.052-.052A6.183 6.183 0 0 0 18 10.165C18 6.765 15.291 4 12 4s-6 2.765-6 6.165c0 1.551.562 3 1.627 4.207l-1.5 1.323 1.428-1.4.152.155a24685.263 24685.263 0 0 0 .138.142l5.52 5.94-.099.106h-2.532l-.1-.107 5.608-6.029zM4 10.165C4 5.67 7.595 2 12 2c4.405 0 8 3.67 8 8.165 0 2.068-.76 4.031-2.127 5.53l-.1.103-.102.104L12 22l-5.62-6.047-.102-.103-.151-.155C4.759 14.145 4 12.233 4 10.165z" fill="#fff"/>
        <path xmlns="http://www.w3.org/2000/svg" stroke="#fff" d="M9.6 10.4a2.4 2.4 0 1 1 4.8 0 2.4 2.4 0 0 1-4.8 0z" stroke-width="2.4"/>
    </g>
</svg>