<svg width="24" height="24" viewBox="0 0 24 24" xmlns="http://www.w3.org/2000/svg">
    <g fill="#4B4C4C" fill-rule="evenodd">
        <path d="M12.572 15.385l2.942-3.253.088-.093.04-.04c.873-.984 1.358-2.28 1.358-3.65C17 5.386 14.728 3 12 3S7 5.386 7 8.349c0 1.358.477 2.622 1.38 3.675l3.626 4 .566-.639zm-5.711-2.06C5.665 11.93 5 10.21 5 8.35 5 4.302 8.146 1 12 1s7 3.302 7 7.349c0 1.86-.665 3.628-1.86 4.977l-.09.093-.088.093L12 19l-4.918-5.442-.088-.093-.133-.14z"/>
        <path d="M12 9a1 1 0 1 0 0-2 1 1 0 0 0 0 2zm0 2a3 3 0 1 1 0-6 3 3 0 0 1 0 6zm-7.715 3.914C2.845 15.863 2 17.1 2 18.484 2 21.716 6.548 24 12 24s10-2.283 10-5.517c0-1.34-.794-2.543-2.153-3.48a1 1 0 1 0-1.135 1.647c.865.596 1.288 1.237 1.288 1.833C20 20.238 16.49 22 12 22s-8-1.762-8-3.517c0-.619.457-1.287 1.386-1.899a1 1 0 1 0-1.1-1.67z"/>
    </g>
</svg>
