<svg width="62" height="32" viewBox="0 0 62 32" xmlns="http://www.w3.org/2000/svg">
    <path d="M30.282.006h-14.49L15.79 32l14.49-.001V.006zM14.494 31.994l.004-31.99L0 .007V32l14.494-.006zM61.805 32L61.812.01 47.417 0l.003 32h14.385zM46.113.004H31.585L31.582 32l14.53-.001V.004zM21.593 9.97a8.408 8.408 0 0 1 1.618-.148c2.173.151 3.836 1.038 5.094 2.827 1.307 2.257 1.175 4.625-.103 6.859-1.276 1.828-2.756 2.506-4.94 2.607-2.428-.004-4.318-.798-5.54-2.97-1.041-2.28-1.01-4.468.241-6.653.957-1.365 2.011-2.102 3.63-2.522zm31.822 2.759l-.005 1.92 4.906.012-.007 2.59h-4.907v1.994l5.799.017.002 2.685-9.083-.01.002-11.872 9.08-.012-.003 2.69-5.784-.014zm-10.744 9.239l-6.097-5.82.01 5.794-3.016-.004-.014-11.893 1.782-.004 5.775 5.917.015-5.925 3.03.003v11.91l-1.485.022zm-33.295-.01l-4-5.337.002 5.337-3.297.004.01-12.01 3.31-.007-.015 5.362 4.052-5.359 3.467-.002-4.34 5.875 4.566 6.148-3.755-.01zm13.346-9.345c-1.354.255-1.971.873-2.464 2.136-.227.924-.223 1.573.025 2.494.49 1.144 1.038 1.65 2.218 2.054.625.104.997.128 1.614-.003 1.011-.451 1.395-1.027 1.74-2.057.19-.918.18-1.588-.05-2.497-.598-1.51-1.435-2.132-3.083-2.127z" fill="#0164A5" fill-rule="evenodd"/>
</svg>
