<svg width="20" height="17" viewBox="0 0 20 17" xmlns="http://www.w3.org/2000/svg">
    <path d="M16.783 10.5h1.21a8.362 8.362 0 0 0-.521-3.237l-1.072.62a6.957 6.957 0 0 0-.4-.925l1.063-.613a8.185 8.185 0 0 0-2.244-2.69l-.632 1.093a6.795 6.795 0 0 0-.827-.567l.629-1.09A7.815 7.815 0 0 0 10.5 2.016v1.277a6.752 6.752 0 0 0-1 0V2.016A7.815 7.815 0 0 0 6.011 3.09l.63 1.09c-.29.169-.567.358-.828.567l-.632-1.094a8.185 8.185 0 0 0-2.244 2.69L4 6.959a6.957 6.957 0 0 0-.399.924l-1.072-.619a8.362 8.362 0 0 0-.521 3.237h1.21c.014.34.053.674.113 1H2.118c.28 1.62.988 3.105 1.389 3.5h13.018c.375-.395 1.079-1.88 1.357-3.5H16.67c.06-.326.099-.66.113-1zM2.546 17A10.278 10.278 0 0 1 0 10.2C0 4.567 4.477 0 10 0s10 4.567 10 10.2c0 2.612-.963 4.995-2.546 6.8H2.546zm8.444-5.86l.01-.01-.008-.007a1 1 0 0 0-1.269-1.085L5 6l4.039 4.724a1 1 0 0 0 1.084 1.268l.007.008.01-.01a1 1 0 0 0 .85-.85z" fill="#4B4C4C" fill-rule="evenodd"/>
</svg>
