<?xml version="1.0" encoding="UTF-8" standalone="no"?>
<svg
   xmlns:dc="http://purl.org/dc/elements/1.1/"
   xmlns:cc="http://creativecommons.org/ns#"
   xmlns:rdf="http://www.w3.org/1999/02/22-rdf-syntax-ns#"
   xmlns:svg="http://www.w3.org/2000/svg"
   xmlns="http://www.w3.org/2000/svg"
   xmlns:sodipodi="http://sodipodi.sourceforge.net/DTD/sodipodi-0.dtd"
   xmlns:inkscape="http://www.inkscape.org/namespaces/inkscape"
   width="24"
   height="24"
   viewBox="0 0 24 24"
   version="1.1"
   id="svg4"
   sodipodi:docname="icon-account-reports.svg"
   inkscape:version="0.92.2 (5c3e80d, 2017-08-06)">
  <metadata
     id="metadata10">
    <rdf:RDF>
      <cc:Work
         rdf:about="">
        <dc:format>image/svg+xml</dc:format>
        <dc:type
           rdf:resource="http://purl.org/dc/dcmitype/StillImage" />
        <dc:title></dc:title>
      </cc:Work>
    </rdf:RDF>
  </metadata>
  <defs
     id="defs8" />
  <sodipodi:namedview
     pagecolor="#ffffff"
     bordercolor="#666666"
     borderopacity="1"
     objecttolerance="10"
     gridtolerance="10"
     guidetolerance="10"
     inkscape:pageopacity="0"
     inkscape:pageshadow="2"
     inkscape:window-width="1920"
     inkscape:window-height="1012"
     id="namedview6"
     showgrid="false"
     inkscape:zoom="4.9166667"
     inkscape:cx="51.212849"
     inkscape:cy="32.58357"
     inkscape:window-x="3832"
     inkscape:window-y="-8"
     inkscape:window-maximized="1"
     inkscape:current-layer="svg4" />
  <path
     d="M 13.086,18 H 10.914 L 5.207,23.707 3.793,22.293 8.086,18 H 3.99 C 2.8893377,17.994497 1.9999862,17.100676 2,16 V 3 H 1 V 1 h 22 v 2 h -1 v 13 c 0,1.11 -0.891,2 -1.99,2 h -4.096 l 4.293,4.293 -1.414,1.414 z M 3.99,3 C 3.995,3 4,2.995 4,3 V 16 H 3.99 20.01 C 20.005,16 20,16.005 20,16 V 3 h 0.01 z"
     id="path2"
     inkscape:connector-curvature="0"
     style="fill:#4b4c4c"
     sodipodi:nodetypes="cccccccccccccsscccccscccsccc" />
  <path
     inkscape:connector-curvature="0"
     style="fill:#4b4c4c;fill-opacity:1;fill-rule:evenodd;stroke-width:0.60574496"
     d="M 12.038567,6.508372 V 4.0788821 H 5.9973486 V 15.011586 H 18.079784 V 6.508372 Z M 7.2055924,12.582095 H 8.413836 V 13.79684 H 7.2055924 Z m 0,-2.429489 H 8.413836 V 11.36735 H 7.2055924 Z m 0,-2.4294886 H 8.413836 V 8.9378618 H 7.2055924 Z m 0,-2.4294899 H 8.413836 V 6.508372 H 7.2055924 Z M 9.6220799,12.582095 H 10.830323 V 13.79684 H 9.6220799 Z m 0,-2.429489 H 10.830323 V 11.36735 H 9.6220799 Z m 0,-2.4294886 H 10.830323 V 8.9378618 H 9.6220799 Z m 0,-2.4294899 H 10.830323 V 6.508372 H 9.6220799 Z M 16.871541,13.79684 h -4.832974 v -1.214745 h 1.208244 V 11.36735 h -1.208244 v -1.214744 h 1.208244 V 8.9378618 H 12.038567 V 7.7231174 h 4.832974 z m -2.416487,-3.644234 h 1.208244 V 8.9378618 h -1.208244 z m 0,2.429489 h 1.208244 V 11.36735 h -1.208244 z"
     id="path2-2" />
</svg>
