<svg width="16" height="16" viewBox="0 0 16 16" xmlns="http://www.w3.org/2000/svg">
    <path d="M14 4.315L11.24 2l-.774.918 2.76 2.315.774-.918zM5.528 2.918L4.76 2 2 4.31l.774.917 2.754-2.31zM8.3 5.683h-.9v3.599l2.85 1.709.45-.738-2.4-1.421v-3.15zm-.3-2.4a5.4 5.4 0 0 0-5.4 5.399A5.396 5.396 0 0 0 8 14.08a5.4 5.4 0 0 0 5.4-5.398A5.4 5.4 0 0 0 8 3.284zm0 9.597a4.196 4.196 0 0 1-4.2-4.198A4.196 4.196 0 0 1 8 4.483c2.322 0 4.2 1.878 4.2 4.199A4.196 4.196 0 0 1 8 12.88z" fill="#969899" fill-rule="evenodd"/>
</svg>
