<svg xmlns="http://www.w3.org/2000/svg" width="24" height="24" viewBox="0 0 24 24">
    <path d="M6 6h12a2 2 0 0 0 2 2v8a2 2 0 0 0-2 2H6a2 2 0 0 0-2-2V8a2 2 0 0 0 2-2zm14.01-2c1.1 0 1.99.895 1.99 1.994v12.012c0 1.1-.898 1.994-1.99 1.994H3.99C2.89 20 2 19.105 2 18.006V5.994C2 4.894 2.898 4 3.99 4h16.02zM12 17c2.21 0 4-2.24 4-5s-1.79-5-4-5-4 2.24-4 5 1.79 5 4 5zm1.352-2h-1.567v-3.176c0-.386.008-.74.024-1.06a3.657 3.657 0 0 1-.36.386l-.65.563-.8-1.034L11.96 9h1.392v6z" fill="#969899" fill-rule="evenodd"/>
</svg>
